# xmcd
#
# Track frame offsets: 
#        150
#        13951
#        28848
#        41726
#        54991
#        67419
#        78818
#        91768
#        105904
#        118810
#        132867
#        148092
#        161434
#        173228
#        186501
#        200570
#        214016
#        227008
#        239789
#        253380
#        266770
#        280247
#
# Disc length: 3921 seconds
#
# Revision: 3
# Processed by: cddbd v1.5.2PL0 Copyright (c) Steve Scherf et al.
# Submitted via: ExactAudioCopy v1.0b6
#
DISCID=4f0f4f16
DTITLE=Saga Blues - Cherokee boogie - Indians and the blues
DYEAR=2004
DGENRE=Blues
TTITLE0=Tampa Red - Seminole Blues
TTITLE1=Memphis Minnie - Chickasaw Train Blues
TTITLE2=Bullmoose Jackson - Cherokee Boogie
TTITLE3=T-Bone Walker - Mean Old World Blues
TTITLE4=Champion Jack Dupree - Junker Blues
TTITLE5=Lowell Fulson - Blues with a Feeling
TTITLE6=Joe Williams - Crawlin' King Snake
TTITLE7=Francis Scrapper Blackwell - Kokomo Blues
TTITLE8=Robert Wilkins - New Stock Yard Blues
TTITLE9=Charley Patton - Lord I'm Discouraged
TTITLE10=Andrew and Jim Baxter - Bamalong Blues
TTITLE11=Memphis Jug Band - Memphis Boy Blues
TTITLE12=Papa Charlie Jackson - The Faking Blues
TTITLE13=Walter Furry Lewis - Big Chief Blues
TTITLE14=Freezone - Indian Squaw Blues
TTITLE15=Henry Thomas - Don't Ease Me In
TTITLE16=Big Bill Broonzy - You Changed
TTITLE17=Priscilla Stewart - Going to the Nation
TTITLE18=Jesse James - Lonesome Day Blues
TTITLE19=Blind Lemon Jefferson - Piney Woods Money Mama
TTITLE20=Helen Humes - Nappy Headed Blues
TTITLE21=Roosevelt Sykes - Skeet and Garret
EXTD=
EXTT0=
EXTT1=
EXTT2=
EXTT3=
EXTT4=
EXTT5=
EXTT6=
EXTT7=
EXTT8=
EXTT9=
EXTT10=
EXTT11=
EXTT12=
EXTT13=
EXTT14=
EXTT15=
EXTT16=
EXTT17=
EXTT18=
EXTT19=
EXTT20=
EXTT21=
PLAYORDER=
